<svg width="16" height="16" viewBox="0 0 16 16" fill="none" xmlns="http://www.w3.org/2000/svg">
<mask id="mask0_1323_216" style="mask-type:luminance" maskUnits="userSpaceOnUse" x="0" y="0" width="16" height="16">
<path d="M16 0H0V16H16V0Z" fill="white"/>
</mask>
<g mask="url(#mask0_1323_216)">
<g filter="url(#filter0_d_1323_216)">
<path d="M8 16C12.4183 16 16 12.4183 16 8C16 3.58172 12.4183 0 8 0C3.58172 0 0 3.58172 0 8C0 12.4183 3.58172 16 8 16Z" fill="#F0F0F0"/>
<path d="M7.65222 8.00009H16C16 7.27799 15.9038 6.57849 15.7244 5.91309H7.65222V8.00009Z" fill="#D80027"/>
<path d="M7.65222 3.8261H14.8258C14.3361 3.02698 13.7099 2.32064 12.9799 1.73914H7.65222V3.8261Z" fill="#D80027"/>
<path d="M8.00007 15.9997C9.88287 15.9997 11.6134 15.349 12.98 14.2606H3.0202C4.38677 15.349 6.11727 15.9997 8.00007 15.9997Z" fill="#D80027"/>
<path d="M1.17417 12.1739H14.8258C15.219 11.5324 15.5239 10.8311 15.7244 10.0869H0.275574C0.476114 10.8311 0.781014 11.5324 1.17417 12.1739Z" fill="#D80027"/>
<path d="M3.70575 1.24931H4.43478L3.75666 1.74197L4.01569 2.53912L3.33759 2.04647L2.6595 2.53912L2.88325 1.85047C2.28619 2.34781 1.76287 2.9305 1.33162 3.57975H1.56522L1.13356 3.89334C1.06631 4.00553 1.00181 4.1195 0.94 4.23516L1.14612 4.86956L0.76156 4.59016C0.66597 4.79269 0.57853 4.99978 0.49994 5.21119L0.72703 5.9102H1.56522L0.88709 6.4028L1.14612 7.2L0.46803 6.7073L0.0618401 7.0025C0.0211901 7.3293 0 7.6622 0 8H8C8 3.58175 8 3.06087 8 0C6.4196 0 4.94641 0.45844 3.70575 1.24931ZM4.01569 7.2L3.33759 6.7073L2.6595 7.2L2.91853 6.4028L2.24041 5.9102H3.07859L3.33759 5.11303L3.59659 5.9102H4.43478L3.75666 6.4028L4.01569 7.2ZM3.75666 4.07241L4.01569 4.86956L3.33759 4.37691L2.6595 4.86956L2.91853 4.07241L2.24041 3.57975H3.07859L3.33759 2.78259L3.59659 3.57975H4.43478L3.75666 4.07241ZM6.8853 7.2L6.2072 6.7073L5.52906 7.2L5.78809 6.4028L5.10997 5.9102H5.94816L6.2072 5.11303L6.4662 5.9102H7.3043L6.6262 6.4028L6.8853 7.2ZM6.6262 4.07241L6.8853 4.86956L6.2072 4.37691L5.52906 4.86956L5.78809 4.07241L5.10997 3.57975H5.94816L6.2072 2.78259L6.4662 3.57975H7.3043L6.6262 4.07241ZM6.6262 1.74197L6.8853 2.53912L6.2072 2.04647L5.52906 2.53912L5.78809 1.74197L5.10997 1.24931H5.94816L6.2072 0.45216L6.4662 1.24931H7.3043L6.6262 1.74197Z" fill="#0052B4"/>
</g>
</g>
<defs>
<filter id="filter0_d_1323_216" x="-4" y="-4" width="24" height="24" filterUnits="userSpaceOnUse" color-interpolation-filters="sRGB">
<feFlood flood-opacity="0" result="BackgroundImageFix"/>
<feColorMatrix in="SourceAlpha" type="matrix" values="0 0 0 0 0 0 0 0 0 0 0 0 0 0 0 0 0 0 127 0" result="hardAlpha"/>
<feOffset/>
<feGaussianBlur stdDeviation="2"/>
<feComposite in2="hardAlpha" operator="out"/>
<feColorMatrix type="matrix" values="0 0 0 0 0 0 0 0 0 0 0 0 0 0 0 0 0 0 0.15 0"/>
<feBlend mode="normal" in2="BackgroundImageFix" result="effect1_dropShadow_1323_216"/>
<feBlend mode="normal" in="SourceGraphic" in2="effect1_dropShadow_1323_216" result="shape"/>
</filter>
</defs>
</svg>
